<svg width="354" height="358" viewBox="0 0 354 358" fill="none" xmlns="http://www.w3.org/2000/svg">
<path d="M22.5 50C10.0736 50 0 39.9264 0 27.5C0 15.0736 10.0736 5 22.5 5H177.5C189.926 5 200 15.0736 200 27.5C200 39.9264 189.926 50 177.5 50H22.5Z" fill="black"/>
<path d="M22.5 220C10.0736 220 0 209.926 0 197.5C0 185.074 10.0736 175 22.5 175H177.5C189.926 175 200 185.074 200 197.5C200 209.926 189.926 220 177.5 220H22.5Z" fill="black"/>
<path d="M156 31.5C156 19.0736 166.074 9 178.5 9C190.926 9 201 19.0736 201 31.5V192.5C201 204.926 190.926 215 178.5 215C166.074 215 156 204.926 156 192.5V31.5Z" fill="black"/>
<path d="M0 197.5C0 185.074 10.0736 175 22.5 175C34.9264 175 45 185.074 45 197.5V335.5C45 347.926 34.9264 358 22.5 358C10.0736 358 0 347.926 0 335.5V197.5Z" fill="black"/>
<path d="M217 22.5C217 10.0736 227.074 0 239.5 0C251.926 0 262 10.0736 262 22.5V182.5C262 194.926 251.926 205 239.5 205C227.074 205 217 194.926 217 182.5V22.5Z" fill="black"/>
<path d="M223.254 199.102C216.486 188.68 219.448 174.745 229.87 167.978C240.292 161.21 254.227 164.172 260.995 174.593L350.316 312.135C357.083 322.557 354.121 336.492 343.7 343.26C333.278 350.028 319.343 347.066 312.575 336.644L223.254 199.102Z" fill="black"/>
</svg>
